<?xml version="1.0" encoding="UTF-8" standalone="no"?>
<!-- Generator: Adobe Illustrator 14.0.0, SVG Export Plug-In . SVG Version: 6.00 Build 43363)  -->

<svg
   xmlns:dc="http://purl.org/dc/elements/1.1/"
   xmlns:cc="http://creativecommons.org/ns#"
   xmlns:rdf="http://www.w3.org/1999/02/22-rdf-syntax-ns#"
   xmlns:svg="http://www.w3.org/2000/svg"
   xmlns="http://www.w3.org/2000/svg"
   xmlns:sodipodi="http://sodipodi.sourceforge.net/DTD/sodipodi-0.dtd"
   xmlns:inkscape="http://www.inkscape.org/namespaces/inkscape"
   version="1.1"
   id="Layer_1"
   x="0px"
   y="0px"
   width="240"
   height="233.259"
   viewBox="0 0 240 233.259"
   enable-background="new 0 0 250 250"
   xml:space="preserve"
   inkscape:version="0.48.1 "
   sodipodi:docname="ZZ1.svg"><metadata
   id="metadata25"><rdf:RDF><cc:Work
       rdf:about=""><dc:format>image/svg+xml</dc:format><dc:type
         rdf:resource="http://purl.org/dc/dcmitype/StillImage" /></cc:Work></rdf:RDF></metadata><defs
   id="defs23" /><sodipodi:namedview
   pagecolor="#ffffff"
   bordercolor="#666666"
   borderopacity="1"
   objecttolerance="10"
   gridtolerance="10"
   guidetolerance="10"
   inkscape:pageopacity="0"
   inkscape:pageshadow="2"
   inkscape:window-width="1280"
   inkscape:window-height="1004"
   id="namedview21"
   showgrid="false"
   fit-margin-top="0"
   fit-margin-left="0"
   fit-margin-right="0"
   fit-margin-bottom="0"
   inkscape:zoom="1.044"
   inkscape:cx="119.5"
   inkscape:cy="116.58"
   inkscape:window-x="-8"
   inkscape:window-y="-8"
   inkscape:window-maximized="1"
   inkscape:current-layer="Layer_1" />
<g
   id="g3"
   transform="translate(-5.5,-8.321)">
	<path
   d="m 245.496,37.539 0.004,174.823 c 0,16.13 -13.132,29.214 -29.271,29.214 L 34.748,241.58 C 18.623,241.58 5.504,228.488 5.504,212.367 L 5.5,37.547 C 5.5,21.431 18.614,8.325 34.744,8.325 L 216.243,8.321 c 16.138,0 29.253,13.101 29.253,29.218 z"
   id="path5"
   inkscape:connector-curvature="0"
   style="fill:#ffffff" />
	<path
   d="m 88.374,204.479 c -1.831,-7.65 -7.922,-12.272 -4.784,-14.791 -0.768,-2.537 -2.322,-5.702 -2.282,-5.667 -9.458,-5.446 -17.552,-14.255 -18.899,-15.537 -1.642,-1.825 -4.464,-3.638 -4.995,-5.112 -2.287,-2.067 -13.474,-17.877 -16.006,-23.679 l -4.556,-0.65 c -2.045,-8.4 -8.905,-15.458 -9.094,-23.902 -0.048,-3.187 1.448,-9.994 1.988,-11.35 0.562,-1.369 3.199,-3.638 3.199,-3.638 V 97.88 c -9.879,0.298 -7.018,-0.715 -8.729,-4.543 -1.189,-2.655 -0.355,-3.234 0.07,-5.091 1.299,-5.403 5.745,-13.808 7.558,-17.626 0.549,-1.909 2.467,-6.54 2.467,-6.54 7.352,-14.998 10.09,-13.904 18.807,-14.721 l 0.465,-0.632 c 8.756,-0.373 7.338,-1.062 8.55,-9.458 -1.277,0.548 -1.642,-2.629 -1.642,-2.629 -0.702,-4.828 1.317,-3.902 2.261,-3.989 0.228,-7.878 1.005,-10.367 6.732,-12.548 h -34.74 c -9.638,0 -17.468,7.808 -17.468,17.446 v 174.819 c 0,9.66 7.834,17.468 17.473,17.468 h 56.873 c -5.895,-3.19 -2.392,-9.287 -2.208,-20.813 -2.774,-2.521 -0.922,-3.539 -1.04,-4.544 z"
   id="path7"
   inkscape:connector-curvature="0"
   style="fill:#006bb1" />
	<path
   d="m 94.237,229.615 c 7.646,-4.622 2.905,-13.435 1.457,-18.605 l 0.268,-0.904 c 0.382,-0.711 -0.443,-2.361 -0.443,-2.361 -0.908,-0.825 -1.154,-5.113 -1.654,-7.101 -0.825,-3.266 1.457,-8.893 1.457,-10.798 0,-1.927 -1.457,-4.542 -4.095,-7.908 -0.632,-0.725 -2.572,-17.131 -4.271,-21.261 -2.366,-5.724 -3.103,-4.819 -5.907,-11.645 -2.186,-4.818 -0.461,-11.898 -5.355,-28.348 l 1.076,-0.992 c 0,0 -3.928,-14.282 -5.179,-18.184 -1.277,-3.906 -3.551,-4.169 -3.551,-4.169 l 0.127,-2.006 c 0.197,-0.641 4.731,-12.53 5.148,-12.904 0.018,-0.276 6.601,-4.749 6.729,-4.082 0.544,2.901 3.09,17.714 4.183,20.08 1.093,2.361 4.912,9.629 6.685,14.124 -6.82,1.65 -11.898,7.799 -11.898,15.137 0,8.599 6.979,15.56 15.577,15.56 6.575,0 12.214,-4.068 14.505,-9.813 1.216,-4.091 1.216,-7.896 0,-11.42 -0.5,-1.299 -1.15,-2.48 -2.036,-3.652 0.013,-2.331 -2.506,-2.317 -3.195,-3.165 -0.632,-0.777 0.636,-1.181 -3.731,-2.194 -0.816,-0.452 -1.448,-6.865 -1.448,-6.865 C 98.045,102.066 96.58,99.244 94.407,94.877 93.297,92.665 92.783,85.704 91.594,82.153 92.248,65.936 87.056,61.217 82.882,58.562 81.276,57.54 80.45,56.811 78.897,55.867 l -0.053,-0.729 c -1.238,-1.189 -3.708,-2.418 -5.754,-3.332 -0.592,-0.632 -0.298,-2.019 0.105,-2.51 1.36,-0.198 3.191,-3.274 4.745,-6.47 1.141,0.079 1.554,-1.102 1.97,-1.733 1.229,-2.054 2.577,-3.814 0.834,-5.025 3.994,-7.11 1.427,-11.925 -0.698,-12.114 -0.917,-1.773 -2.414,-2.901 -5.1,-3.854 l 141.3,-0.004 c 9.664,0 17.481,7.808 17.481,17.446 l 0.004,174.818 c 0,8.774 -6.329,15.972 -14.694,17.254 h -124.8 z"
   id="path9"
   inkscape:connector-curvature="0"
   style="fill:#ea2c4d" />
	<polygon
   points="114.466,99.375 161.385,99.375 161.385,114.175 145.913,114.175 145.913,158.315 129.941,158.32 129.941,114.175 114.466,114.175 "
   id="polygon11"
   style="fill:#ffffff" />
	<polygon
   points="185.643,99.375 197.638,125.064 209.703,99.375 228.611,99.375 197.638,158.315 166.893,99.375 "
   id="polygon13"
   style="fill:#ffffff" />
	<polygon
   points="36.737,207.279 36.793,207.279 36.793,191.86 42.021,191.86 42.021,218.032 36.144,218.032 31.904,202.789 31.759,201.846 31.703,201.846 31.703,218.032 26.466,218.032 26.466,191.86 32.378,191.86 36.548,206.239 "
   id="polygon15"
   style="fill:#ffffff" />
	<path
   d="m 50.303,202.21 h 1.659 c 1.905,0 2.103,-1.409 2.103,-3.042 0,-1.839 -0.391,-2.861 -1.87,-2.861 h -1.892 v 5.903 z m 0,11.367 h 1.795 c 2.001,0 2.229,-0.982 2.229,-3.577 0,-1.79 -0.228,-3.537 -2.098,-3.537 h -1.927 v 7.114 z M 44.088,191.86 h 8.55 c 4.389,0 6.518,1.668 6.518,6.158 0,2.747 -0.386,5.175 -3.31,6.153 v 0.065 c 2.954,0.522 3.959,2.722 3.959,6.026 0,4.394 -1.602,7.769 -6.974,7.769 H 44.088 V 191.86 z"
   id="path17"
   inkscape:connector-curvature="0"
   style="fill:#ffffff" />
	<path
   d="m 68.746,196.421 -1.505,11.758 h 3.015 l -1.378,-11.758 -0.026,-0.61 h -0.066 l -0.04,0.61 z m -3.924,-4.561 h 7.997 l 4.916,26.172 h -6.329 l -0.557,-5.754 h -4.231 l -0.624,5.754 h -6.03 l 4.858,-26.172 z"
   id="path19"
   inkscape:connector-curvature="0"
   style="fill:#ffffff" />
</g>
</svg>